<svg id="flat" height="512" viewBox="0 0 512 512" width="512" xmlns="http://www.w3.org/2000/svg"><path d="m256 248v88a32.004 32.004 0 0 1 -32 32h-96l16-32 64-16-24-72z" fill="#ffceb6"/><path d="m256 248v48h-56l-16-48z" fill="#ffa100"/><path d="m144 336-16-16-56 40v8h56z" fill="#e0edff"/><path d="m384 200h104v16l-16 8-8 16h-8l-8-8h-64z" fill="#ffceb6"/><path d="m359.99992 200a31.99994 31.99994 0 0 1 -31.99992-31.99994v-24.00006a53.89622 53.89622 0 0 0 44.84437 24h26.18509a16.97054 16.97054 0 0 1 16.97054 16.97055 16.97054 16.97054 0 0 1 -4.97056 12l-11.02944 11.02945z" fill="#b1712c"/><path d="m344 208v8a55.99317 55.99317 0 0 1 -56 56 38.63351 38.63351 0 0 1 -27.31006-11.31006l-4.68994-4.68994-16-1.39-72-6.26-96-8.35v-40h252.68994a27.318 27.318 0 0 1 19.31006 8z" fill="#ffceb6"/><path d="m344 208v8a55.99317 55.99317 0 0 1 -56 56 38.63351 38.63351 0 0 1 -27.31006-11.31006l-4.68994-4.68994-16-1.39v-54.61h84.68994a27.318 27.318 0 0 1 19.31006 8z" fill="#ef5e3b"/><path d="m240 200v54.61l-72-6.26v-48.35z" fill="#ffb401"/><path d="m368.001 208 15.999 16v24h-24a24 24 0 0 1 -24-24 24 24 0 0 1 24-24h8z" fill="#ffceb6"/><path d="m384 248a24 24 0 0 0 24-24 24 24 0 0 0 -24-24h-16l.001 8 15.999 16z" fill="#c78640"/><path d="m336 246.67073v97.32927l16 16v8h-48l-13.20288-118.8257a22.67074 22.67074 0 0 1 22.53207-25.1743h.00005a22.67074 22.67074 0 0 1 22.67076 22.67073z" fill="#ffceb6"/><path d="m72 240v-40l-24-8-24 64 8 8z" fill="#e0edff"/></svg>